<svg width="32" height="32" viewBox="0 0 32 32" fill="none" xmlns="http://www.w3.org/2000/svg">
<path d="M11.4443 21.055C11.1656 21.055 10.9676 20.9083 10.8503 20.615C10.7403 20.3217 10.6853 19.8523 10.6853 19.207C10.6853 18.2537 10.8209 17.348 11.0923 16.49C11.1583 16.2773 11.2646 16.1233 11.4113 16.028C11.5653 15.9253 11.7779 15.874 12.0493 15.874C12.1959 15.874 12.2986 15.8923 12.3573 15.929C12.4159 15.9657 12.4453 16.0353 12.4453 16.138C12.4453 16.2553 12.3903 16.5193 12.2803 16.93C12.2069 17.2233 12.1483 17.48 12.1043 17.7C12.0603 17.9127 12.0236 18.1803 11.9943 18.503C12.1923 17.931 12.4269 17.447 12.6983 17.051C12.9769 16.655 13.2593 16.3617 13.5453 16.171C13.8386 15.973 14.1136 15.874 14.3703 15.874C14.6269 15.874 14.8066 15.9327 14.9093 16.05C15.0193 16.1673 15.0743 16.347 15.0743 16.589C15.0743 16.8237 15.0046 17.249 14.8653 17.865C14.8066 18.129 14.7663 18.327 14.7443 18.459C15.1109 17.557 15.5179 16.9007 15.9653 16.49C16.4126 16.0793 16.8306 15.874 17.2193 15.874C17.6959 15.874 17.9343 16.1123 17.9343 16.589C17.9343 16.875 17.8536 17.392 17.6923 18.14C17.5529 18.778 17.4833 19.1997 17.4833 19.405C17.4833 19.6983 17.5896 19.845 17.8023 19.845C17.9489 19.845 18.1213 19.757 18.3193 19.581C18.5246 19.3977 18.7959 19.1043 19.1333 18.701C19.2213 18.5983 19.3203 18.547 19.4303 18.547C19.5256 18.547 19.5989 18.591 19.6503 18.679C19.7089 18.767 19.7383 18.888 19.7383 19.042C19.7383 19.3353 19.6686 19.5627 19.5293 19.724C19.2139 20.1127 18.8729 20.4317 18.5063 20.681C18.1469 20.9303 17.7363 21.055 17.2743 21.055C16.9003 21.055 16.6179 20.9487 16.4273 20.736C16.2366 20.516 16.1413 20.2007 16.1413 19.79C16.1413 19.5847 16.1926 19.218 16.2953 18.69C16.3906 18.228 16.4383 17.909 16.4383 17.733C16.4383 17.6157 16.3979 17.557 16.3173 17.557C16.2219 17.557 16.0863 17.6817 15.9103 17.931C15.7343 18.173 15.5583 18.4957 15.3823 18.899C15.2063 19.3023 15.0633 19.7277 14.9533 20.175C14.8726 20.527 14.7773 20.7617 14.6673 20.879C14.5646 20.9963 14.3959 21.055 14.1613 21.055C13.9193 21.055 13.7359 20.9413 13.6113 20.714C13.4939 20.4793 13.4353 20.197 13.4353 19.867C13.4353 19.5883 13.4719 19.185 13.5453 18.657C13.6039 18.1877 13.6333 17.8797 13.6333 17.733C13.6333 17.6157 13.5929 17.557 13.5123 17.557C13.4023 17.557 13.2629 17.689 13.0943 17.953C12.9256 18.217 12.7606 18.5543 12.5993 18.965C12.4453 19.3757 12.3206 19.779 12.2253 20.175C12.1446 20.5197 12.0493 20.7543 11.9393 20.879C11.8366 20.9963 11.6716 21.055 11.4443 21.055Z" fill="#525252"/>
<path d="M20.6638 16.919C20.6491 17.2857 20.6418 17.5717 20.6418 17.777C20.6418 18.305 20.6675 18.7193 20.7188 19.02C20.7775 19.3133 20.8691 19.526 20.9938 19.658C21.1258 19.7827 21.3055 19.845 21.5328 19.845C21.6501 19.845 21.7895 19.8083 21.9508 19.735C22.1121 19.6617 22.2588 19.5663 22.3908 19.449C22.4715 19.3757 22.5521 19.339 22.6328 19.339C22.7208 19.339 22.7905 19.3903 22.8418 19.493C22.9005 19.5883 22.9298 19.7057 22.9298 19.845C22.9298 19.9843 22.9005 20.12 22.8418 20.252C22.7905 20.384 22.7098 20.494 22.5998 20.582C22.2185 20.8973 21.7858 21.055 21.3018 21.055C20.6051 21.055 20.0955 20.7653 19.7728 20.186C19.4501 19.5993 19.2888 18.8367 19.2888 17.898C19.2888 17.5753 19.2998 17.249 19.3218 16.919H18.8928C18.6728 16.919 18.5225 16.8787 18.4418 16.798C18.3685 16.7173 18.3318 16.589 18.3318 16.413C18.3318 16.0023 18.4968 15.797 18.8268 15.797H19.4538C19.5785 14.9903 19.7691 14.2533 20.0258 13.586C20.2825 12.9187 20.5905 12.387 20.9498 11.991C21.3165 11.595 21.7088 11.397 22.1268 11.397C22.4348 11.397 22.6768 11.5327 22.8528 11.804C23.0288 12.0753 23.1168 12.4163 23.1168 12.827C23.1168 13.9637 22.6401 14.9537 21.6868 15.797H22.9188C23.0361 15.797 23.1205 15.8227 23.1718 15.874C23.2231 15.9253 23.2488 16.0207 23.2488 16.16C23.2488 16.666 22.8345 16.919 22.0058 16.919H20.6638ZM21.8298 12.453C21.7198 12.453 21.5951 12.5923 21.4558 12.871C21.3238 13.1423 21.1955 13.5237 21.0708 14.015C20.9535 14.499 20.8545 15.038 20.7738 15.632C21.2065 15.258 21.5291 14.84 21.7418 14.378C21.9618 13.9087 22.0718 13.4833 22.0718 13.102C22.0718 12.6693 21.9911 12.453 21.8298 12.453Z" fill="white"/>
</svg>
