<svg width="250" height="150" viewBox="0 0 250 150" fill="none" xmlns="http://www.w3.org/2000/svg">
<path d="M87.9757 84.1C87.469 84.1 87.109 83.8333 86.8957 83.3C86.6957 82.7667 86.5957 81.9133 86.5957 80.74C86.5957 79.0067 86.8424 77.36 87.3357 75.8C87.4557 75.4133 87.649 75.1333 87.9157 74.96C88.1957 74.7733 88.5824 74.68 89.0757 74.68C89.3424 74.68 89.529 74.7133 89.6357 74.78C89.7424 74.8467 89.7957 74.9733 89.7957 75.16C89.7957 75.3733 89.6957 75.8533 89.4957 76.6C89.3624 77.1333 89.2557 77.6 89.1757 78C89.0957 78.3867 89.029 78.8733 88.9757 79.46C89.3357 78.42 89.7624 77.54 90.2557 76.82C90.7624 76.1 91.2757 75.5667 91.7957 75.22C92.329 74.86 92.829 74.68 93.2957 74.68C93.7624 74.68 94.089 74.7867 94.2757 75C94.4757 75.2133 94.5757 75.54 94.5757 75.98C94.5757 76.4067 94.449 77.18 94.1957 78.3C94.089 78.78 94.0157 79.14 93.9757 79.38C94.6424 77.74 95.3824 76.5467 96.1957 75.8C97.009 75.0533 97.769 74.68 98.4757 74.68C99.3424 74.68 99.7757 75.1133 99.7757 75.98C99.7757 76.5 99.629 77.44 99.3357 78.8C99.0824 79.96 98.9557 80.7267 98.9557 81.1C98.9557 81.6333 99.149 81.9 99.5357 81.9C99.8024 81.9 100.116 81.74 100.476 81.42C100.849 81.0867 101.342 80.5533 101.956 79.82C102.116 79.6333 102.296 79.54 102.496 79.54C102.669 79.54 102.802 79.62 102.896 79.78C103.002 79.94 103.056 80.16 103.056 80.44C103.056 80.9733 102.929 81.3867 102.676 81.68C102.102 82.3867 101.482 82.9667 100.816 83.42C100.162 83.8733 99.4157 84.1 98.5757 84.1C97.8957 84.1 97.3824 83.9067 97.0357 83.52C96.689 83.12 96.5157 82.5467 96.5157 81.8C96.5157 81.4267 96.609 80.76 96.7957 79.8C96.969 78.96 97.0557 78.38 97.0557 78.06C97.0557 77.8467 96.9824 77.74 96.8357 77.74C96.6624 77.74 96.4157 77.9667 96.0957 78.42C95.7757 78.86 95.4557 79.4467 95.1357 80.18C94.8157 80.9133 94.5557 81.6867 94.3557 82.5C94.209 83.14 94.0357 83.5667 93.8357 83.78C93.649 83.9933 93.3424 84.1 92.9157 84.1C92.4757 84.1 92.1424 83.8933 91.9157 83.48C91.7024 83.0533 91.5957 82.54 91.5957 81.94C91.5957 81.4333 91.6624 80.7 91.7957 79.74C91.9024 78.8867 91.9557 78.3267 91.9557 78.06C91.9557 77.8467 91.8824 77.74 91.7357 77.74C91.5357 77.74 91.2824 77.98 90.9757 78.46C90.669 78.94 90.369 79.5533 90.0757 80.3C89.7957 81.0467 89.569 81.78 89.3957 82.5C89.249 83.1267 89.0757 83.5533 88.8757 83.78C88.689 83.9933 88.389 84.1 87.9757 84.1ZM104.059 73.36C103.499 73.36 103.079 73.2333 102.799 72.98C102.519 72.7133 102.379 72.3467 102.379 71.88C102.379 71.4133 102.559 71.0267 102.919 70.72C103.292 70.4 103.752 70.24 104.299 70.24C104.792 70.24 105.192 70.36 105.499 70.6C105.805 70.84 105.959 71.18 105.959 71.62C105.959 72.1533 105.785 72.58 105.439 72.9C105.092 73.2067 104.632 73.36 104.059 73.36ZM103.899 84.1C103.032 84.1 102.399 83.7933 101.999 83.18C101.612 82.5667 101.419 81.7533 101.419 80.74C101.419 80.14 101.492 79.3733 101.639 78.44C101.799 77.4933 101.999 76.6133 102.239 75.8C102.359 75.3733 102.519 75.08 102.719 74.92C102.919 74.76 103.239 74.68 103.679 74.68C104.359 74.68 104.699 74.9067 104.699 75.36C104.699 75.6933 104.572 76.4667 104.319 77.68C103.999 79.1467 103.839 80.14 103.839 80.66C103.839 81.06 103.892 81.3667 103.999 81.58C104.105 81.7933 104.285 81.9 104.539 81.9C104.779 81.9 105.079 81.7333 105.439 81.4C105.799 81.0667 106.279 80.54 106.879 79.82C107.039 79.6333 107.219 79.54 107.419 79.54C107.592 79.54 107.725 79.62 107.819 79.78C107.925 79.94 107.979 80.16 107.979 80.44C107.979 80.9733 107.852 81.3867 107.599 81.68C106.279 83.2933 105.045 84.1 103.899 84.1ZM107.78 84.1C107.274 84.1 106.914 83.8333 106.7 83.3C106.5 82.7667 106.4 81.9133 106.4 80.74C106.4 79.0067 106.647 77.36 107.14 75.8C107.26 75.4133 107.454 75.1333 107.72 74.96C108 74.7733 108.387 74.68 108.88 74.68C109.147 74.68 109.334 74.7133 109.44 74.78C109.547 74.8467 109.6 74.9733 109.6 75.16C109.6 75.3733 109.5 75.8533 109.3 76.6C109.167 77.1333 109.06 77.6 108.98 78C108.9 78.4 108.834 78.8933 108.78 79.48C109.22 78.3333 109.714 77.4 110.26 76.68C110.807 75.96 111.34 75.4467 111.86 75.14C112.394 74.8333 112.88 74.68 113.32 74.68C114.187 74.68 114.62 75.1133 114.62 75.98C114.62 76.5 114.474 77.44 114.18 78.8C113.927 79.96 113.8 80.7267 113.8 81.1C113.8 81.6333 113.994 81.9 114.38 81.9C114.647 81.9 114.96 81.74 115.32 81.42C115.694 81.0867 116.187 80.5533 116.8 79.82C116.96 79.6333 117.14 79.54 117.34 79.54C117.514 79.54 117.647 79.62 117.74 79.78C117.847 79.94 117.9 80.16 117.9 80.44C117.9 80.9733 117.774 81.3867 117.52 81.68C116.947 82.3867 116.327 82.9667 115.66 83.42C115.007 83.8733 114.26 84.1 113.42 84.1C112.74 84.1 112.227 83.9067 111.88 83.52C111.534 83.12 111.36 82.5467 111.36 81.8C111.36 81.4267 111.454 80.76 111.64 79.8C111.814 78.96 111.9 78.38 111.9 78.06C111.9 77.8467 111.827 77.74 111.68 77.74C111.507 77.74 111.26 77.9667 110.94 78.42C110.634 78.86 110.314 79.4467 109.98 80.18C109.66 80.9133 109.4 81.6867 109.2 82.5C109.054 83.1267 108.88 83.5533 108.68 83.78C108.494 83.9933 108.194 84.1 107.78 84.1ZM118.902 73.36C118.342 73.36 117.922 73.2333 117.642 72.98C117.362 72.7133 117.222 72.3467 117.222 71.88C117.222 71.4133 117.402 71.0267 117.762 70.72C118.136 70.4 118.596 70.24 119.142 70.24C119.636 70.24 120.036 70.36 120.342 70.6C120.649 70.84 120.802 71.18 120.802 71.62C120.802 72.1533 120.629 72.58 120.282 72.9C119.936 73.2067 119.476 73.36 118.902 73.36ZM118.742 84.1C117.876 84.1 117.242 83.7933 116.842 83.18C116.456 82.5667 116.262 81.7533 116.262 80.74C116.262 80.14 116.336 79.3733 116.482 78.44C116.642 77.4933 116.842 76.6133 117.082 75.8C117.202 75.3733 117.362 75.08 117.562 74.92C117.762 74.76 118.082 74.68 118.522 74.68C119.202 74.68 119.542 74.9067 119.542 75.36C119.542 75.6933 119.416 76.4667 119.162 77.68C118.842 79.1467 118.682 80.14 118.682 80.66C118.682 81.06 118.736 81.3667 118.842 81.58C118.949 81.7933 119.129 81.9 119.382 81.9C119.622 81.9 119.922 81.7333 120.282 81.4C120.642 81.0667 121.122 80.54 121.722 79.82C121.882 79.6333 122.062 79.54 122.262 79.54C122.436 79.54 122.569 79.62 122.662 79.78C122.769 79.94 122.822 80.16 122.822 80.44C122.822 80.9733 122.696 81.3867 122.442 81.68C121.122 83.2933 119.889 84.1 118.742 84.1Z" fill="#525252"/>
<path d="M130.124 79.54C130.297 79.54 130.431 79.62 130.524 79.78C130.631 79.94 130.684 80.16 130.684 80.44C130.684 80.9733 130.557 81.3867 130.304 81.68C129.731 82.3867 129.104 82.9667 128.424 83.42C127.744 83.8733 126.964 84.1 126.084 84.1C123.364 84.1 122.004 82.1867 122.004 78.36C122.004 77.7733 122.024 77.18 122.064 76.58H121.284C120.884 76.58 120.611 76.5067 120.464 76.36C120.331 76.2133 120.264 75.98 120.264 75.66C120.264 74.9133 120.564 74.54 121.164 74.54H122.304C122.531 73.0733 122.877 71.7333 123.344 70.52C123.811 69.3067 124.371 68.34 125.024 67.62C125.691 66.9 126.404 66.54 127.164 66.54C127.724 66.54 128.164 66.7867 128.484 67.28C128.804 67.7733 128.964 68.3933 128.964 69.14C128.964 71.2067 128.097 73.0067 126.364 74.54H128.604C128.817 74.54 128.971 74.5867 129.064 74.68C129.157 74.7733 129.204 74.9467 129.204 75.2C129.204 76.12 128.451 76.58 126.944 76.58H124.504C124.477 77.2467 124.464 77.7667 124.464 78.14C124.464 79.5267 124.624 80.5 124.944 81.06C125.277 81.62 125.797 81.9 126.504 81.9C127.077 81.9 127.584 81.7267 128.024 81.38C128.464 81.0333 128.984 80.5133 129.584 79.82C129.744 79.6333 129.924 79.54 130.124 79.54ZM126.624 68.46C126.424 68.46 126.197 68.7133 125.944 69.22C125.704 69.7133 125.471 70.4067 125.244 71.3C125.031 72.18 124.851 73.16 124.704 74.24C125.491 73.56 126.077 72.8 126.464 71.96C126.864 71.1067 127.064 70.3333 127.064 69.64C127.064 68.8533 126.917 68.46 126.624 68.46ZM131.516 84.1C130.689 84.1 130.029 83.8 129.536 83.2C129.042 82.6 128.796 81.8133 128.796 80.84C128.796 79.7733 129.042 78.7667 129.536 77.82C130.029 76.86 130.682 76.0933 131.496 75.52C132.322 74.9333 133.196 74.64 134.116 74.64C134.409 74.64 134.602 74.7 134.696 74.82C134.802 74.9267 134.889 75.1267 134.956 75.42C135.236 75.3667 135.529 75.34 135.836 75.34C136.489 75.34 136.816 75.5733 136.816 76.04C136.816 76.32 136.716 76.9867 136.516 78.04C136.209 79.5733 136.056 80.64 136.056 81.24C136.056 81.44 136.102 81.6 136.196 81.72C136.302 81.84 136.436 81.9 136.596 81.9C136.849 81.9 137.156 81.74 137.516 81.42C137.876 81.0867 138.362 80.5533 138.976 79.82C139.136 79.6333 139.316 79.54 139.516 79.54C139.689 79.54 139.822 79.62 139.916 79.78C140.022 79.94 140.076 80.16 140.076 80.44C140.076 80.9733 139.949 81.3867 139.696 81.68C139.149 82.36 138.569 82.9333 137.956 83.4C137.342 83.8667 136.749 84.1 136.176 84.1C135.736 84.1 135.329 83.9533 134.956 83.66C134.596 83.3533 134.322 82.94 134.136 82.42C133.442 83.54 132.569 84.1 131.516 84.1ZM132.236 82.08C132.529 82.08 132.809 81.9067 133.076 81.56C133.342 81.2133 133.536 80.7533 133.656 80.18L134.396 76.5C133.836 76.5133 133.316 76.7267 132.836 77.14C132.369 77.54 131.996 78.0733 131.716 78.74C131.436 79.4067 131.296 80.1133 131.296 80.86C131.296 81.2733 131.376 81.58 131.536 81.78C131.709 81.98 131.942 82.08 132.236 82.08ZM142.17 84.54C141.477 84.54 140.944 84.38 140.57 84.06C140.21 83.74 140.03 83.38 140.03 82.98C140.03 82.6333 140.157 82.3333 140.41 82.08C140.664 81.8267 141.037 81.7 141.53 81.7C141.704 81.7 141.904 81.72 142.13 81.76C142.37 81.7867 142.55 81.8067 142.67 81.82C142.657 81.4733 142.577 81.1467 142.43 80.84C142.297 80.5333 142.124 80.24 141.91 79.96C141.697 79.6667 141.497 79.4133 141.31 79.2C140.897 79.9867 140.484 80.64 140.07 81.16C139.67 81.68 139.23 82.1733 138.75 82.64C138.51 82.88 138.257 83 137.99 83C137.777 83 137.604 82.9267 137.47 82.78C137.337 82.62 137.27 82.4267 137.27 82.2C137.27 81.9333 137.364 81.6867 137.55 81.46L137.81 81.14C138.544 80.2333 139.097 79.4867 139.47 78.9C139.697 78.5133 139.964 78 140.27 77.36C140.577 76.7067 140.877 76.0333 141.17 75.34C141.424 74.7533 141.95 74.46 142.75 74.46C143.124 74.46 143.384 74.4933 143.53 74.56C143.677 74.6267 143.75 74.7333 143.75 74.88C143.75 74.96 143.724 75.0867 143.67 75.26C143.617 75.4333 143.544 75.6067 143.45 75.78C143.21 76.26 143.09 76.6667 143.09 77C143.09 77.2 143.157 77.42 143.29 77.66C143.437 77.9 143.657 78.2 143.95 78.56C144.377 79.12 144.697 79.6 144.91 80C145.137 80.3867 145.25 80.8133 145.25 81.28C145.25 81.4133 145.237 81.6 145.21 81.84C145.864 81.5867 146.63 80.9133 147.51 79.82C147.67 79.6333 147.85 79.54 148.05 79.54C148.224 79.54 148.357 79.62 148.45 79.78C148.557 79.94 148.61 80.16 148.61 80.44C148.61 80.9467 148.484 81.36 148.23 81.68C147.564 82.5067 146.924 83.0733 146.31 83.38C145.71 83.6733 144.964 83.8333 144.07 83.86C143.537 84.3133 142.904 84.54 142.17 84.54ZM158.545 79.54C158.719 79.54 158.852 79.62 158.945 79.78C159.052 79.94 159.105 80.16 159.105 80.44C159.105 80.9733 158.979 81.3867 158.725 81.68C158.125 82.4133 157.519 83 156.905 83.44C156.292 83.88 155.565 84.1 154.725 84.1C153.699 84.1 152.872 83.8067 152.245 83.22C151.619 82.6333 151.305 81.8533 151.305 80.88C151.305 80.36 151.572 79.9867 152.105 79.76C152.692 79.5067 153.112 79.24 153.365 78.96C153.619 78.6667 153.745 78.3133 153.745 77.9C153.745 77.66 153.692 77.48 153.585 77.36C153.492 77.24 153.372 77.18 153.225 77.18C152.865 77.18 152.465 77.44 152.025 77.96C151.599 78.48 151.199 79.1533 150.825 79.98C150.452 80.7933 150.159 81.6333 149.945 82.5C149.799 83.1267 149.625 83.5533 149.425 83.78C149.239 83.9933 148.939 84.1 148.525 84.1C148.112 84.1 147.805 83.9533 147.605 83.66C147.419 83.3533 147.292 82.8867 147.225 82.26C147.159 81.6333 147.125 80.7133 147.125 79.5C147.125 77.4467 147.332 75.3067 147.745 73.08C148.172 70.8533 148.792 68.9867 149.605 67.48C150.432 65.96 151.419 65.2 152.565 65.2C153.179 65.2 153.672 65.4667 154.045 66C154.432 66.52 154.625 67.2 154.625 68.04C154.625 69.3867 154.232 70.7867 153.445 72.24C152.659 73.68 151.379 75.3667 149.605 77.3C149.565 77.9933 149.545 78.7067 149.545 79.44C150.185 77.7733 150.919 76.5667 151.745 75.82C152.572 75.06 153.345 74.68 154.065 74.68C154.732 74.68 155.265 74.9067 155.665 75.36C156.079 75.8133 156.285 76.3733 156.285 77.04C156.285 77.7733 156.099 78.4467 155.725 79.06C155.352 79.6733 154.712 80.22 153.805 80.7C153.859 81.06 154.019 81.3533 154.285 81.58C154.565 81.7933 154.899 81.9 155.285 81.9C155.699 81.9 156.099 81.74 156.485 81.42C156.872 81.1 157.379 80.5667 158.005 79.82C158.165 79.6333 158.345 79.54 158.545 79.54ZM152.145 67.18C151.905 67.18 151.639 67.5267 151.345 68.22C151.052 68.9 150.765 69.8267 150.485 71C150.219 72.16 149.999 73.4267 149.825 74.8C150.652 73.8267 151.332 72.7667 151.865 71.62C152.412 70.4733 152.685 69.4333 152.685 68.5C152.685 68.0733 152.639 67.7467 152.545 67.52C152.452 67.2933 152.319 67.18 152.145 67.18ZM161.213 84.54C160.52 84.54 159.987 84.38 159.613 84.06C159.253 83.74 159.073 83.38 159.073 82.98C159.073 82.6333 159.2 82.3333 159.453 82.08C159.707 81.8267 160.08 81.7 160.573 81.7C160.747 81.7 160.947 81.72 161.173 81.76C161.413 81.7867 161.593 81.8067 161.713 81.82C161.7 81.4733 161.62 81.1467 161.473 80.84C161.34 80.5333 161.167 80.24 160.953 79.96C160.74 79.6667 160.54 79.4133 160.353 79.2C159.94 79.9867 159.527 80.64 159.113 81.16C158.713 81.68 158.273 82.1733 157.793 82.64C157.553 82.88 157.3 83 157.033 83C156.82 83 156.647 82.9267 156.513 82.78C156.38 82.62 156.313 82.4267 156.313 82.2C156.313 81.9333 156.407 81.6867 156.593 81.46L156.853 81.14C157.587 80.2333 158.14 79.4867 158.513 78.9C158.753 78.5133 158.993 78.0533 159.233 77.52C159.487 76.9867 159.813 76.26 160.213 75.34C160.467 74.7533 160.993 74.46 161.793 74.46C162.167 74.46 162.427 74.4933 162.573 74.56C162.72 74.6267 162.793 74.7333 162.793 74.88C162.793 74.96 162.767 75.0867 162.713 75.26C162.66 75.4333 162.587 75.6067 162.493 75.78C162.253 76.26 162.133 76.6667 162.133 77C162.133 77.2 162.2 77.42 162.333 77.66C162.48 77.9 162.7 78.2 162.993 78.56C163.42 79.12 163.74 79.6 163.953 80C164.18 80.3867 164.293 80.8133 164.293 81.28C164.293 81.84 164.16 82.3733 163.893 82.88C163.64 83.3733 163.28 83.7733 162.813 84.08C162.347 84.3867 161.813 84.54 161.213 84.54Z" fill="white"/>
</svg>
