<svg width="32" height="32" viewBox="0 0 32 32" fill="none" xmlns="http://www.w3.org/2000/svg">
<path d="M9.1058 22.075C8.7258 22.075 8.4558 21.875 8.2958 21.475C8.1458 21.075 8.0708 20.435 8.0708 19.555C8.0708 18.255 8.2558 17.02 8.6258 15.85C8.7158 15.56 8.8608 15.35 9.0608 15.22C9.2708 15.08 9.5608 15.01 9.9308 15.01C10.1308 15.01 10.2708 15.035 10.3508 15.085C10.4308 15.135 10.4708 15.23 10.4708 15.37C10.4708 15.53 10.3958 15.89 10.2458 16.45C10.1458 16.85 10.0658 17.2 10.0058 17.5C9.9458 17.79 9.8958 18.155 9.8558 18.595C10.1258 17.815 10.4458 17.155 10.8158 16.615C11.1958 16.075 11.5808 15.675 11.9708 15.415C12.3708 15.145 12.7458 15.01 13.0958 15.01C13.4458 15.01 13.6908 15.09 13.8308 15.25C13.9808 15.41 14.0558 15.655 14.0558 15.985C14.0558 16.305 13.9608 16.885 13.7708 17.725C13.6908 18.085 13.6358 18.355 13.6058 18.535C14.1058 17.305 14.6608 16.41 15.2708 15.85C15.8808 15.29 16.4508 15.01 16.9808 15.01C17.6308 15.01 17.9558 15.335 17.9558 15.985C17.9558 16.375 17.8458 17.08 17.6258 18.1C17.4358 18.97 17.3408 19.545 17.3408 19.825C17.3408 20.225 17.4858 20.425 17.7758 20.425C17.9758 20.425 18.2108 20.305 18.4808 20.065C18.7608 19.815 19.1308 19.415 19.5908 18.865C19.7108 18.725 19.8458 18.655 19.9958 18.655C20.1258 18.655 20.2258 18.715 20.2958 18.835C20.3758 18.955 20.4158 19.12 20.4158 19.33C20.4158 19.73 20.3208 20.04 20.1308 20.26C19.7008 20.79 19.2358 21.225 18.7358 21.565C18.2458 21.905 17.6858 22.075 17.0558 22.075C16.5458 22.075 16.1608 21.93 15.9008 21.64C15.6408 21.34 15.5108 20.91 15.5108 20.35C15.5108 20.07 15.5808 19.57 15.7208 18.85C15.8508 18.22 15.9158 17.785 15.9158 17.545C15.9158 17.385 15.8608 17.305 15.7508 17.305C15.6208 17.305 15.4358 17.475 15.1958 17.815C14.9558 18.145 14.7158 18.585 14.4758 19.135C14.2358 19.685 14.0408 20.265 13.8908 20.875C13.7808 21.355 13.6508 21.675 13.5008 21.835C13.3608 21.995 13.1308 22.075 12.8108 22.075C12.4808 22.075 12.2308 21.92 12.0608 21.61C11.9008 21.29 11.8208 20.905 11.8208 20.455C11.8208 20.075 11.8708 19.525 11.9708 18.805C12.0508 18.165 12.0908 17.745 12.0908 17.545C12.0908 17.385 12.0358 17.305 11.9258 17.305C11.7758 17.305 11.5858 17.485 11.3558 17.845C11.1258 18.205 10.9008 18.665 10.6808 19.225C10.4708 19.785 10.3008 20.335 10.1708 20.875C10.0608 21.345 9.9308 21.665 9.7808 21.835C9.6408 21.995 9.4158 22.075 9.1058 22.075Z" fill="#A3A3A3"/>
<path d="M21.6779 16.435C21.6579 16.935 21.6479 17.325 21.6479 17.605C21.6479 18.325 21.6829 18.89 21.7529 19.3C21.8329 19.7 21.9579 19.99 22.1279 20.17C22.3079 20.34 22.5529 20.425 22.8629 20.425C23.0229 20.425 23.2129 20.375 23.4329 20.275C23.6529 20.175 23.8529 20.045 24.0329 19.885C24.1429 19.785 24.2529 19.735 24.3629 19.735C24.4829 19.735 24.5779 19.805 24.6479 19.945C24.7279 20.075 24.7679 20.235 24.7679 20.425C24.7679 20.615 24.7279 20.8 24.6479 20.98C24.5779 21.16 24.4679 21.31 24.3179 21.43C23.7979 21.86 23.2079 22.075 22.5479 22.075C21.5979 22.075 20.9029 21.68 20.4629 20.89C20.0229 20.09 19.8029 19.05 19.8029 17.77C19.8029 17.33 19.8179 16.885 19.8479 16.435H19.2629C18.9629 16.435 18.7579 16.38 18.6479 16.27C18.5479 16.16 18.4979 15.985 18.4979 15.745C18.4979 15.185 18.7229 14.905 19.1729 14.905H20.0279C20.1979 13.805 20.4579 12.8 20.8079 11.89C21.1579 10.98 21.5779 10.255 22.0679 9.715C22.5679 9.175 23.1029 8.905 23.6729 8.905C24.0929 8.905 24.4229 9.09 24.6629 9.46C24.9029 9.83 25.0229 10.295 25.0229 10.855C25.0229 12.405 24.3729 13.755 23.0729 14.905H24.7529C24.9129 14.905 25.0279 14.94 25.0979 15.01C25.1679 15.08 25.2029 15.21 25.2029 15.4C25.2029 16.09 24.6379 16.435 23.5079 16.435H21.6779ZM23.2679 10.345C23.1179 10.345 22.9479 10.535 22.7579 10.915C22.5779 11.285 22.4029 11.805 22.2329 12.475C22.0729 13.135 21.9379 13.87 21.8279 14.68C22.4179 14.17 22.8579 13.6 23.1479 12.97C23.4479 12.33 23.5979 11.75 23.5979 11.23C23.5979 10.64 23.4879 10.345 23.2679 10.345Z" fill="white"/>
</svg>
