<svg width="16" height="16" viewBox="0 0 16 16" fill="none" xmlns="http://www.w3.org/2000/svg">
<g clip-path="url(#clip0_2504_3015)">
<path d="M2.94425 13.055C2.66559 13.055 2.46759 12.9083 2.35025 12.615C2.24025 12.3217 2.18525 11.8523 2.18525 11.207C2.18525 10.2537 2.32092 9.348 2.59225 8.49C2.65825 8.27733 2.76459 8.12333 2.91125 8.028C3.06525 7.92533 3.27792 7.874 3.54925 7.874C3.69592 7.874 3.79859 7.89233 3.85725 7.929C3.91592 7.96567 3.94525 8.03533 3.94525 8.138C3.94525 8.25533 3.89025 8.51933 3.78025 8.93C3.70692 9.22333 3.64825 9.48 3.60425 9.7C3.56025 9.91267 3.52359 10.1803 3.49425 10.503C3.69225 9.931 3.92692 9.447 4.19825 9.051C4.47692 8.655 4.75925 8.36167 5.04525 8.171C5.33859 7.973 5.61359 7.874 5.87025 7.874C6.12692 7.874 6.30659 7.93267 6.40925 8.05C6.51925 8.16733 6.57425 8.347 6.57425 8.589C6.57425 8.82367 6.50459 9.249 6.36525 9.865C6.30659 10.129 6.26625 10.327 6.24425 10.459C6.61092 9.557 7.01792 8.90067 7.46525 8.49C7.91259 8.07933 8.33059 7.874 8.71925 7.874C9.19592 7.874 9.43425 8.11233 9.43425 8.589C9.43425 8.875 9.35359 9.392 9.19225 10.14C9.05292 10.778 8.98325 11.1997 8.98325 11.405C8.98325 11.6983 9.08959 11.845 9.30225 11.845C9.44892 11.845 9.62125 11.757 9.81925 11.581C10.0246 11.3977 10.2959 11.1043 10.6333 10.701C10.7213 10.5983 10.8203 10.547 10.9303 10.547C11.0256 10.547 11.0989 10.591 11.1503 10.679C11.2089 10.767 11.2383 10.888 11.2383 11.042C11.2383 11.3353 11.1686 11.5627 11.0293 11.724C10.7139 12.1127 10.3729 12.4317 10.0063 12.681C9.64692 12.9303 9.23625 13.055 8.77425 13.055C8.40025 13.055 8.11792 12.9487 7.92725 12.736C7.73659 12.516 7.64125 12.2007 7.64125 11.79C7.64125 11.5847 7.69259 11.218 7.79525 10.69C7.89059 10.228 7.93825 9.909 7.93825 9.733C7.93825 9.61567 7.89792 9.557 7.81725 9.557C7.72192 9.557 7.58625 9.68167 7.41025 9.931C7.23425 10.173 7.05825 10.4957 6.88225 10.899C6.70625 11.3023 6.56325 11.7277 6.45325 12.175C6.37259 12.527 6.27725 12.7617 6.16725 12.879C6.06459 12.9963 5.89592 13.055 5.66125 13.055C5.41925 13.055 5.23592 12.9413 5.11125 12.714C4.99392 12.4793 4.93525 12.197 4.93525 11.867C4.93525 11.5883 4.97192 11.185 5.04525 10.657C5.10392 10.1877 5.13325 9.87967 5.13325 9.733C5.13325 9.61567 5.09292 9.557 5.01225 9.557C4.90225 9.557 4.76292 9.689 4.59425 9.953C4.42559 10.217 4.26059 10.5543 4.09925 10.965C3.94525 11.3757 3.82059 11.779 3.72525 12.175C3.64459 12.5197 3.54925 12.7543 3.43925 12.879C3.33659 12.9963 3.17159 13.055 2.94425 13.055Z" fill="#A3A3A3"/>
<path d="M12.1638 8.919C12.1491 9.28567 12.1418 9.57167 12.1418 9.777C12.1418 10.305 12.1675 10.7193 12.2188 11.02C12.2775 11.3133 12.3691 11.526 12.4938 11.658C12.6258 11.7827 12.8055 11.845 13.0328 11.845C13.1501 11.845 13.2895 11.8083 13.4508 11.735C13.6121 11.6617 13.7588 11.5663 13.8908 11.449C13.9715 11.3757 14.0521 11.339 14.1328 11.339C14.2208 11.339 14.2905 11.3903 14.3418 11.493C14.4005 11.5883 14.4298 11.7057 14.4298 11.845C14.4298 11.9843 14.4005 12.12 14.3418 12.252C14.2905 12.384 14.2098 12.494 14.0998 12.582C13.7185 12.8973 13.2858 13.055 12.8018 13.055C12.1051 13.055 11.5955 12.7653 11.2728 12.186C10.9501 11.5993 10.7888 10.8367 10.7888 9.898C10.7888 9.57533 10.7998 9.249 10.8218 8.919H10.3928C10.1728 8.919 10.0225 8.87867 9.9418 8.798C9.86847 8.71733 9.8318 8.589 9.8318 8.413C9.8318 8.00233 9.9968 7.797 10.3268 7.797H10.9538C11.0785 6.99033 11.2691 6.25333 11.5258 5.586C11.7825 4.91867 12.0905 4.387 12.4498 3.991C12.8165 3.595 13.2088 3.397 13.6268 3.397C13.9348 3.397 14.1768 3.53267 14.3528 3.804C14.5288 4.07533 14.6168 4.41633 14.6168 4.827C14.6168 5.96367 14.1401 6.95367 13.1868 7.797H14.4188C14.5361 7.797 14.6205 7.82267 14.6718 7.874C14.7231 7.92533 14.7488 8.02067 14.7488 8.16C14.7488 8.666 14.3345 8.919 13.5058 8.919H12.1638ZM13.3298 4.453C13.2198 4.453 13.0951 4.59233 12.9558 4.871C12.8238 5.14233 12.6955 5.52367 12.5708 6.015C12.4535 6.499 12.3545 7.038 12.2738 7.632C12.7065 7.258 13.0291 6.84 13.2418 6.378C13.4618 5.90867 13.5718 5.48333 13.5718 5.102C13.5718 4.66933 13.4911 4.453 13.3298 4.453Z" fill="white"/>
</g>
<defs>
<clipPath id="clip0_2504_3015">
<rect width="16" height="16" fill="white"/>
</clipPath>
</defs>
</svg>
