<svg width="121" height="48" viewBox="0 0 121 48" fill="none" xmlns="http://www.w3.org/2000/svg">
<path d="M13.8179 31V16.8H17.8779L21.4979 27.14L25.0979 16.8H29.1579V31H26.1179V21.8L22.7779 30.96H20.1779L16.8579 21.8V31H13.8179ZM31.6852 31V20.28H34.6852V31H31.6852ZM31.6252 18.96V16.56H34.7252V18.96H31.6252ZM37.447 31V20.28H40.147L40.267 23.42L39.887 23.32C39.9936 22.52 40.207 21.88 40.527 21.4C40.8603 20.92 41.2736 20.5733 41.767 20.36C42.2603 20.1467 42.8003 20.04 43.387 20.04C44.1603 20.04 44.8136 20.2067 45.347 20.54C45.8936 20.8733 46.307 21.3467 46.587 21.96C46.8803 22.56 47.027 23.2733 47.027 24.1V31H44.027V25.1C44.027 24.5267 43.9803 24.04 43.887 23.64C43.7936 23.24 43.627 22.94 43.387 22.74C43.147 22.5267 42.8136 22.42 42.387 22.42C41.7603 22.42 41.2803 22.6533 40.947 23.12C40.6136 23.5733 40.447 24.2333 40.447 25.1V31H37.447ZM49.4977 31V20.28H52.4977V31H49.4977ZM49.4377 18.96V16.56H52.5377V18.96H49.4377ZM57.6963 31V19.36H53.4563V16.8H65.0163V19.36H60.7563V31H57.6963Z" fill="#A3A3A3"/>
<path d="M68.3027 31.24C67.1961 31.24 66.2894 30.9867 65.5827 30.48C64.8894 29.96 64.5427 29.24 64.5427 28.32C64.5427 27.3733 64.8361 26.6467 65.4227 26.14C66.0227 25.62 66.9027 25.24 68.0627 25L71.5227 24.32C71.5227 23.6267 71.3627 23.1067 71.0427 22.76C70.7361 22.4 70.2894 22.22 69.7027 22.22C69.1294 22.22 68.6827 22.3533 68.3627 22.62C68.0427 22.8733 67.8361 23.2533 67.7427 23.76L64.7227 23.62C64.9227 22.4467 65.4494 21.56 66.3027 20.96C67.1694 20.3467 68.3027 20.04 69.7027 20.04C71.3027 20.04 72.5027 20.42 73.3027 21.18C74.1161 21.94 74.5227 23.0533 74.5227 24.52V28.18C74.5227 28.4867 74.5694 28.6933 74.6627 28.8C74.7694 28.8933 74.9227 28.94 75.1227 28.94H75.4227V31C75.3294 31.0267 75.1761 31.0533 74.9627 31.08C74.7627 31.1067 74.5627 31.12 74.3627 31.12C73.9361 31.12 73.5361 31.0467 73.1627 30.9C72.8027 30.7533 72.5094 30.5067 72.2827 30.16C72.0561 29.8 71.9427 29.2933 71.9427 28.64L72.2027 28.84C72.0694 29.32 71.8294 29.74 71.4827 30.1C71.1494 30.46 70.7094 30.74 70.1627 30.94C69.6294 31.14 69.0094 31.24 68.3027 31.24ZM69.0227 29.18C69.5161 29.18 69.9494 29.0867 70.3227 28.9C70.6961 28.7 70.9894 28.4133 71.2027 28.04C71.4161 27.6667 71.5227 27.2267 71.5227 26.72V26.2L69.0827 26.72C68.6027 26.8133 68.2361 26.9733 67.9827 27.2C67.7427 27.4133 67.6227 27.6933 67.6227 28.04C67.6227 28.4 67.7427 28.68 67.9827 28.88C68.2227 29.08 68.5694 29.18 69.0227 29.18ZM81.3824 31.24C80.2758 31.24 79.3491 31.0867 78.6024 30.78C77.8558 30.46 77.2824 30.0333 76.8824 29.5C76.4958 28.9533 76.2758 28.3267 76.2224 27.62L79.2624 27.52C79.3558 28.0267 79.5691 28.42 79.9024 28.7C80.2358 28.98 80.7291 29.12 81.3824 29.12C81.9158 29.12 82.3291 29.0333 82.6224 28.86C82.9291 28.6867 83.0824 28.42 83.0824 28.06C83.0824 27.8333 83.0291 27.6467 82.9224 27.5C82.8158 27.34 82.6024 27.2067 82.2824 27.1C81.9758 26.98 81.5158 26.8733 80.9024 26.78C79.7691 26.58 78.8824 26.3467 78.2424 26.08C77.6024 25.8133 77.1491 25.4667 76.8824 25.04C76.6158 24.6133 76.4824 24.0933 76.4824 23.48C76.4824 22.4533 76.8758 21.6267 77.6624 21C78.4624 20.36 79.6558 20.04 81.2424 20.04C82.2558 20.04 83.1024 20.2 83.7824 20.52C84.4758 20.84 85.0091 21.28 85.3824 21.84C85.7691 22.3867 86.0091 23.0133 86.1024 23.72L83.0824 23.84C83.0424 23.4933 82.9358 23.2 82.7624 22.96C82.6024 22.7067 82.3958 22.5133 82.1424 22.38C81.8891 22.2333 81.5824 22.16 81.2224 22.16C80.6891 22.16 80.2758 22.2733 79.9824 22.5C79.7024 22.7133 79.5624 23 79.5624 23.36C79.5624 23.6267 79.6224 23.8467 79.7424 24.02C79.8758 24.18 80.0891 24.3133 80.3824 24.42C80.6758 24.5267 81.0691 24.6133 81.5624 24.68C82.7091 24.84 83.6158 25.0667 84.2824 25.36C84.9624 25.64 85.4491 25.9933 85.7424 26.42C86.0358 26.8467 86.1824 27.3733 86.1824 28C86.1824 28.6933 85.9824 29.28 85.5824 29.76C85.1824 30.24 84.6224 30.6067 83.9024 30.86C83.1958 31.1133 82.3558 31.24 81.3824 31.24ZM88.0329 31V16.8H91.0329V24.68L95.0129 20.28H98.6129L94.4529 24.7L98.7329 31H95.4529L92.5129 26.4L91.0329 27.98V31H88.0329ZM104.136 31.24C103.03 31.24 102.103 31.0867 101.356 30.78C100.61 30.46 100.036 30.0333 99.6363 29.5C99.2497 28.9533 99.0297 28.3267 98.9763 27.62L102.016 27.52C102.11 28.0267 102.323 28.42 102.656 28.7C102.99 28.98 103.483 29.12 104.136 29.12C104.67 29.12 105.083 29.0333 105.376 28.86C105.683 28.6867 105.836 28.42 105.836 28.06C105.836 27.8333 105.783 27.6467 105.676 27.5C105.57 27.34 105.356 27.2067 105.036 27.1C104.73 26.98 104.27 26.8733 103.656 26.78C102.523 26.58 101.636 26.3467 100.996 26.08C100.356 25.8133 99.903 25.4667 99.6363 25.04C99.3697 24.6133 99.2363 24.0933 99.2363 23.48C99.2363 22.4533 99.6297 21.6267 100.416 21C101.216 20.36 102.41 20.04 103.996 20.04C105.01 20.04 105.856 20.2 106.536 20.52C107.23 20.84 107.763 21.28 108.136 21.84C108.523 22.3867 108.763 23.0133 108.856 23.72L105.836 23.84C105.796 23.4933 105.69 23.2 105.516 22.96C105.356 22.7067 105.15 22.5133 104.896 22.38C104.643 22.2333 104.336 22.16 103.976 22.16C103.443 22.16 103.03 22.2733 102.736 22.5C102.456 22.7133 102.316 23 102.316 23.36C102.316 23.6267 102.376 23.8467 102.496 24.02C102.63 24.18 102.843 24.3133 103.136 24.42C103.43 24.5267 103.823 24.6133 104.316 24.68C105.463 24.84 106.37 25.0667 107.036 25.36C107.716 25.64 108.203 25.9933 108.496 26.42C108.79 26.8467 108.936 27.3733 108.936 28C108.936 28.6933 108.736 29.28 108.336 29.76C107.936 30.24 107.376 30.6067 106.656 30.86C105.95 31.1133 105.11 31.24 104.136 31.24Z" fill="white"/>
</svg>
